<svg width="32" height="32" viewBox="0 0 100 100" fill="none" xmlns="http://www.w3.org/2000/svg">
  <path
    d="M50 85 L25 60 C20 55 17 48 17 42 C17 32 24 25 33 25 C38 25 43 27 46 31 L50 35 L54 31 C57 27 62 25 67 25 C76 25 83 32 83 42 C83 48 80 55 75 60 L50 85 Z"
    fill="#f43f5e"
  />
  <g
    fill="white"
    fillRule="evenodd"
    stroke="#f43f5e"
    strokeWidth="2"
    transform="translate(50, 55) scale(0.45) translate(-96, -97)"
  >
    <path d="m 93,166 c 0,7 6,7 6,0 l 3,-138 c 0,-8 -12,-8 -12,0 l 3,135 0,3 z"/>
    <g>
      <path d="m 100,153 c 7,4 3,15 -3,15 2,-5 3,-9 3,-15 z m 1,-40 c 10,9 4,22 -3,26 -6,3 -6,7 -6,15 -9,-10 -4,-19 4,-24 5,-4 5,-10 5,-17 z m 1,-30 c 0,11 -17,14 -17,22 0,3 1,9 6,12 0,-11 9,-12 15,-18 7,-7 7,-19 -4,-28 0,4 0,8 0,12 z M 90,77 C 80,69 76,55 80,46 c 3,-10 20,-11 20,-3 0,8 -20,3 -13,16 l 3,5 0,13 z"/>
      <path d="m 95,43 c 7,-3 -7,-3 0,0 z" fill="#f43f5e" fillRule="evenodd" stroke="none"/>
    </g>
  </g>
</svg>